<!DOCTYPE svg PUBLIC "-//W3C//DTD SVG 20010904//EN" "http://www.w3.org/TR/2001/REC-SVG-20010904/DTD/svg10.dtd">
<svg version="1.0"  xmlns="http://www.w3.org/2000/svg"  viewBox="0 0 10240 10240" preserveAspectRatio="xMidYMid meet">
<g id="layer101"  stroke="none">
 <path d="M7135 9569 c-123 -18 -249 -67 -369 -143 -28 -18 -141 -86 -251 -151 -110 -65 -234 -138 -275 -163 -41 -25 -129 -76 -195 -115 -66 -38 -174 -102 -240 -142 -66 -40 -173 -103 -238 -141 -105 -61 -335 -197 -548 -323 -138 -82 -536 -317 -927 -547 -45 -27 -117 -70 -160 -95 -42 -25 -120 -71 -172 -101 -52 -31 -129 -76 -170 -100 -165 -98 -518 -306 -565 -333 -27 -15 -72 -42 -100 -60 -27 -18 -117 -71 -200 -119 -82 -48 -177 -103 -210 -123 -33 -19 -163 -96 -290 -171 -126 -75 -300 -177 -385 -227 -85 -51 -245 -145 -355 -210 -110 -65 -270 -159 -355 -210 -143 -85 -295 -175 -423 -251 -29 -17 -106 -62 -172 -101 -66 -38 -154 -90 -195 -115 -41 -25 -135 -81 -207 -124 l-133 -78 0 -129 c0 -99 3 -128 13 -124 11 5 196 114 427 252 134 80 488 289 735 435 116 68 280 165 365 215 85 51 234 139 330 195 96 57 256 151 355 210 99 59 259 153 355 210 96 56 261 153 365 215 105 62 278 164 385 227 345 204 653 385 750 443 108 65 358 212 568 336 79 46 167 98 195 115 29 17 106 62 172 101 66 38 143 83 170 100 28 17 151 91 275 163 124 73 313 185 420 248 107 63 240 142 294 175 198 120 404 201 541 213 57 6 65 3 173 -50 126 -62 161 -68 197 -32 34 35 40 69 20 121 -21 56 -70 97 -157 132 -38 14 -68 28 -68 30 0 2 51 28 113 58 127 62 205 85 289 85 50 0 70 -7 162 -55 114 -60 140 -65 178 -35 64 50 57 121 -18 190 -103 95 -262 129 -469 99z"/>
 <path d="M3295 6912 c6 -5 62 -33 125 -62 63 -29 194 -89 290 -135 405 -191 725 -312 1005 -379 83 -20 182 -46 220 -58 76 -23 295 -114 309 -128 15 -15 -12 -64 -64 -115 l-49 -48 -6 36 c-9 48 -68 100 -159 142 -86 40 -150 56 -399 101 -428 79 -463 84 -667 94 -113 6 -378 24 -589 41 -376 29 -870 54 -879 44 -7 -7 -11 -5 108 -59 58 -27 159 -75 225 -107 317 -152 633 -283 855 -352 239 -75 278 -85 462 -122 98 -19 193 -41 211 -49 43 -18 103 -70 110 -96 7 -28 -100 -150 -297 -340 -299 -287 -409 -407 -565 -614 -148 -197 -224 -352 -238 -488 -18 -178 148 -288 435 -288 216 0 396 90 593 299 55 58 108 118 117 133 22 38 50 46 182 52 168 7 261 44 411 160 195 153 500 549 687 891 252 464 330 758 263 995 -26 93 -39 109 -130 161 -88 50 -120 59 -441 125 -209 42 -497 82 -645 89 -77 4 -340 22 -585 41 -473 36 -913 54 -895 36z"/>
 <path d="M8255 6009 c-22 -5 -50 -11 -62 -14 -19 -4 -23 -12 -23 -41 0 -44 24 -101 56 -135 l25 -27 -38 -7 c-66 -12 -261 -93 -367 -152 -416 -233 -828 -634 -1125 -1095 -91 -143 -230 -414 -255 -498 -62 -208 -27 -379 102 -502 59 -57 128 -88 191 -88 63 1 206 99 272 187 57 75 91 151 169 378 93 269 128 348 235 525 220 367 385 559 791 921 l220 196 35 -29 c19 -16 68 -52 109 -80 41 -29 116 -82 165 -118 74 -55 331 -242 546 -397 245 -177 707 -516 872 -640 31 -24 59 -43 62 -43 3 0 5 62 5 139 l0 138 -62 44 c-35 23 -115 82 -178 129 -63 47 -149 110 -190 140 -101 73 -293 213 -415 303 -55 41 -199 145 -320 232 -121 87 -263 190 -315 229 -52 39 -97 72 -100 74 -2 1 32 36 75 77 44 40 78 75 75 78 -3 3 -57 -5 -120 -19 -63 -13 -128 -24 -145 -24 -19 0 -60 20 -120 59 -103 68 -115 72 -170 60z"/>
 <path d="M2315 3273 c-41 -22 -89 -57 -163 -121 l-62 -54 -78 21 c-43 12 -85 21 -92 21 -8 0 9 -24 38 -53 l52 -53 -76 -63 c-41 -35 -90 -76 -107 -92 -18 -15 -120 -100 -227 -189 -107 -89 -233 -194 -280 -234 -79 -68 -134 -113 -313 -260 -40 -32 -119 -98 -177 -146 -58 -49 -240 -202 -405 -340 -165 -138 -328 -275 -362 -303 l-62 -52 0 -142 c-1 -79 2 -143 6 -143 3 0 32 22 62 48 86 74 353 298 460 387 54 44 164 136 246 205 82 69 176 148 210 175 34 28 98 80 141 117 43 37 167 140 274 229 107 88 242 201 300 249 143 120 196 164 330 274 63 52 124 103 134 115 l19 21 41 -34 c37 -30 171 -131 271 -205 56 -42 194 -113 300 -156 50 -20 108 -45 130 -55 127 -57 516 -153 750 -185 28 -4 88 -14 135 -22 123 -21 455 -28 666 -13 191 13 373 44 466 80 152 57 252 168 288 317 26 113 -41 224 -167 274 -53 22 -73 24 -228 24 -167 0 -172 -1 -330 -42 -268 -70 -342 -82 -631 -99 -431 -25 -642 0 -1205 140 -140 35 -275 67 -300 71 l-46 7 84 86 c46 47 83 93 83 101 0 27 -38 79 -69 96 -38 19 -68 19 -106 -2z"/>
 <path d="M6505 3126 c-118 -29 -251 -91 -329 -155 -121 -97 -227 -267 -260 -418 -89 -402 187 -797 612 -879 167 -32 351 -4 513 77 68 34 194 133 230 180 55 72 119 190 146 265 24 70 27 93 27 204 0 109 -3 136 -27 205 -110 331 -401 537 -754 534 -59 0 -130 -6 -158 -13z"/>
 </g>

</svg>
