<!DOCTYPE svg PUBLIC "-//W3C//DTD SVG 20010904//EN" "http://www.w3.org/TR/2001/REC-SVG-20010904/DTD/svg10.dtd">
<svg version="1.0"  xmlns="http://www.w3.org/2000/svg" viewBox="0 0 10240 10240" preserveAspectRatio="xMidYMid meet">
<g id="layer101"  stroke="none">
 <path d="M5550 9024 c-123 -33 -240 -128 -437 -355 -85 -98 -244 -261 -395 -404 -139 -132 -388 -373 -553 -535 -404 -398 -651 -631 -1375 -1300 -151 -140 -396 -367 -545 -506 -313 -292 -353 -327 -632 -545 -408 -321 -572 -468 -719 -644 -136 -162 -178 -272 -177 -455 2 -179 47 -290 174 -424 100 -106 182 -169 279 -214 65 -30 88 -36 171 -40 116 -6 179 7 272 56 126 65 239 187 399 432 446 679 1408 1701 2373 2521 417 354 1005 800 1480 1124 362 246 496 359 546 461 37 74 49 174 30 251 -37 150 -332 455 -526 543 -112 51 -252 64 -365 34z m232 -215 c78 -31 210 -120 281 -192 72 -72 111 -125 156 -215 l32 -63 -21 -34 c-36 -59 -141 -147 -345 -290 -1136 -794 -1612 -1176 -2416 -1942 -667 -634 -1316 -1374 -1665 -1899 -178 -267 -291 -364 -422 -364 -123 0 -339 157 -411 299 -45 87 -51 229 -15 323 24 62 113 176 239 307 127 131 246 233 540 461 273 213 350 277 525 440 80 75 402 374 715 665 884 820 1027 956 1370 1295 176 174 425 417 554 540 128 124 303 302 388 397 173 193 251 259 332 284 47 14 109 9 163 -12z"/>
 <path d="M4650 6779 c0 -17 126 -236 248 -434 184 -298 273 -446 347 -583 l73 -134 -18 -51 c-9 -29 -38 -97 -64 -152 -87 -186 -171 -518 -248 -987 -26 -153 -47 -258 -54 -258 -32 0 -438 123 -905 273 -395 128 -575 182 -884 266 -311 84 -458 120 -465 114 -6 -6 273 -279 401 -393 55 -49 236 -181 425 -310 181 -123 396 -271 478 -328 474 -330 696 -451 954 -519 77 -21 122 -26 222 -27 119 -1 128 0 196 30 77 33 172 101 222 158 153 174 393 667 498 1024 2 9 42 -22 102 -78 212 -200 367 -266 547 -233 147 27 260 112 306 231 18 47 22 77 22 167 -1 248 -95 486 -289 734 -132 168 -414 427 -699 640 -179 135 -502 356 -666 456 -261 160 -749 416 -749 394z"/>
 <path d="M8575 3809 c-224 -22 -594 -109 -815 -194 -197 -75 -369 -185 -442 -281 -52 -68 -73 -133 -72 -224 1 -132 59 -221 179 -277 55 -26 71 -28 200 -31 174 -4 273 14 507 94 213 73 295 107 488 204 88 44 163 80 168 80 9 0 139 -206 195 -310 31 -58 238 -537 319 -738 16 -43 56 -155 88 -250 32 -96 61 -176 64 -179 16 -16 21 168 21 782 -1 677 -1 692 -23 793 -58 264 -168 432 -326 496 -108 43 -322 57 -551 35z"/>
 <path d="M4965 3214 c-16 -3 -138 -18 -270 -35 -246 -30 -415 -61 -698 -128 -334 -79 -867 -215 -991 -253 -115 -35 -608 -226 -623 -242 -10 -10 46 -8 522 20 523 30 1066 37 1315 16 85 -7 270 -23 410 -34 155 -13 341 -22 475 -22 324 -1 423 20 501 106 61 68 88 140 88 233 0 58 -5 90 -18 115 -51 96 -136 166 -249 202 -51 17 -95 21 -247 23 -102 2 -198 1 -215 -1z"/>
 <path d="M6350 2685 c-245 -55 -419 -193 -520 -410 -58 -124 -74 -195 -74 -315 0 -129 18 -199 86 -340 42 -88 63 -117 127 -181 223 -222 548 -284 828 -159 79 36 143 80 217 149 309 293 298 792 -26 1085 -70 64 -206 136 -303 162 -86 22 -255 27 -335 9z"/>
 </g>

</svg>
